<?xml version="1.0" ?><svg viewBox="0 0 32 32" xmlns="http://www.w3.org/2000/svg"><g data-name="Layer 37" id="Layer_37"><path d="M25,17H7a.92.92,0,0,0-1,.8v6.4A.92.92,0,0,0,7,25H25a.92.92,0,0,0,1-.8V17.8A.92.92,0,0,0,25,17ZM14,21.78a1,1,0,0,1-.25.33,1.22,1.22,0,0,1-.39.21,1.87,1.87,0,0,1-.49.07,1.39,1.39,0,0,1-.3,0l-.25-.06-.18-.08-.1-.06,0,0a.64.64,0,0,1,0-.07S12,22,12,22v-.13a.39.39,0,0,1,0-.18s0-.05.05-.05a.16.16,0,0,1,.09,0l.15.07.22.08a1.18,1.18,0,0,0,.28,0,.86.86,0,0,0,.24,0,.39.39,0,0,0,.17-.09.33.33,0,0,0,.11-.15.45.45,0,0,0,0-.2.46.46,0,0,0-.05-.21.38.38,0,0,0-.12-.16.5.5,0,0,0-.22-.1.87.87,0,0,0-.3,0h-.32a.08.08,0,0,1,0,0,.15.15,0,0,1,0-.08.49.49,0,0,1,0-.13.53.53,0,0,1,0-.13.14.14,0,0,1,0-.07l0,0h.33a1,1,0,0,0,.25,0,.77.77,0,0,0,.18-.1.61.61,0,0,0,.12-.16.65.65,0,0,0,0-.21.45.45,0,0,0,0-.16.41.41,0,0,0-.08-.13.28.28,0,0,0-.14-.09.53.53,0,0,0-.19,0,.86.86,0,0,0-.24,0l-.2.09-.15.09a.21.21,0,0,1-.09.05h0a.05.05,0,0,1,0,0,.64.64,0,0,1,0-.07v-.24a.15.15,0,0,1,0-.07.08.08,0,0,1,0-.05l0-.05.1-.07a.85.85,0,0,1,.19-.1l.27-.08a1.69,1.69,0,0,1,.33,0,1.25,1.25,0,0,1,.4.06.72.72,0,0,1,.3.16.64.64,0,0,1,.18.27,1,1,0,0,1,.06.36A1.27,1.27,0,0,1,14,20a.88.88,0,0,1-.11.24.77.77,0,0,1-.18.18.66.66,0,0,1-.24.11h0a.75.75,0,0,1,.3.09.73.73,0,0,1,.36.41.87.87,0,0,1,.05.28A1.06,1.06,0,0,1,14,21.78Zm3.18-2.19a.64.64,0,0,1,0,.09l0,.05h0a.17.17,0,0,1-.1,0l-.19-.1-.28-.1a1.32,1.32,0,0,0-.37,0,1,1,0,0,0-.42.09.93.93,0,0,0-.32.24,1.31,1.31,0,0,0-.2.37,1.53,1.53,0,0,0-.07.49,2,2,0,0,0,.07.51,1.18,1.18,0,0,0,.2.37.8.8,0,0,0,.32.22,1,1,0,0,0,.4.08.76.76,0,0,0,.21,0,.56.56,0,0,0,.2-.08v-.78H16a.07.07,0,0,1-.07-.06.49.49,0,0,1,0-.2c0-.05,0-.09,0-.12a.15.15,0,0,1,0-.08l0-.05h1.17l.06.05,0,.07a.22.22,0,0,1,0,.09V22a.27.27,0,0,1,0,.13.22.22,0,0,1-.11.1l-.19.07-.25.06-.25,0h-.26a2,2,0,0,1-.67-.11,1.39,1.39,0,0,1-.51-.34,1.61,1.61,0,0,1-.32-.54,2.27,2.27,0,0,1-.11-.72,2.19,2.19,0,0,1,.12-.75,1.63,1.63,0,0,1,.33-.56,1.35,1.35,0,0,1,.52-.36,1.83,1.83,0,0,1,.68-.12,2.13,2.13,0,0,1,.37,0,1.77,1.77,0,0,1,.29.07.69.69,0,0,1,.21.1.48.48,0,0,1,.12.08.28.28,0,0,1,.05.11,1,1,0,0,1,0,.19Zm2.73.88a.85.85,0,0,1-.24.37.94.94,0,0,1-.39.23,1.71,1.71,0,0,1-.54.08h-.26v1.08s0,0,0,.05l-.05,0-.1,0H18l-.1,0-.05,0s0,0,0-.05V19.18a.24.24,0,0,1,.06-.18.23.23,0,0,1,.16-.06h1a1.2,1.2,0,0,1,.24,0,.86.86,0,0,1,.29.11.82.82,0,0,1,.25.2.8.8,0,0,1,.15.29A1.12,1.12,0,0,1,20,20,1.28,1.28,0,0,1,20,20.47Zm-.79-.92a.48.48,0,0,0-.18-.07h-.46v1.15h.28a.63.63,0,0,0,.26-.05.45.45,0,0,0,.27-.31,1,1,0,0,0,0-.24.67.67,0,0,0-.06-.3A.5.5,0,0,0,19.16,19.55ZM23,26h2v1a2,2,0,0,1-2,2H9a2,2,0,0,1-2-2V26H9v1H23ZM9,16H7V5A2,2,0,0,1,9,3H20.41L25,7.59V16H23V9H19a1,1,0,0,1-1-1V5H9Zm16,1H7a.92.92,0,0,0-1,.8v6.4A.92.92,0,0,0,7,25H25a.92.92,0,0,0,1-.8V17.8A.92.92,0,0,0,25,17ZM14,21.78a1,1,0,0,1-.25.33,1.22,1.22,0,0,1-.39.21,1.87,1.87,0,0,1-.49.07,1.39,1.39,0,0,1-.3,0l-.25-.06-.18-.08-.1-.06,0,0a.64.64,0,0,1,0-.07S12,22,12,22v-.13a.39.39,0,0,1,0-.18s0-.05.05-.05a.16.16,0,0,1,.09,0l.15.07.22.08a1.18,1.18,0,0,0,.28,0,.86.86,0,0,0,.24,0,.39.39,0,0,0,.17-.09.33.33,0,0,0,.11-.15.45.45,0,0,0,0-.2.46.46,0,0,0-.05-.21.38.38,0,0,0-.12-.16.5.5,0,0,0-.22-.1.87.87,0,0,0-.3,0h-.32a.08.08,0,0,1,0,0,.15.15,0,0,1,0-.08.49.49,0,0,1,0-.13.53.53,0,0,1,0-.13.14.14,0,0,1,0-.07l0,0h.33a1,1,0,0,0,.25,0,.77.77,0,0,0,.18-.1.61.61,0,0,0,.12-.16.65.65,0,0,0,0-.21.45.45,0,0,0,0-.16.41.41,0,0,0-.08-.13.28.28,0,0,0-.14-.09.53.53,0,0,0-.19,0,.86.86,0,0,0-.24,0l-.2.09-.15.09a.21.21,0,0,1-.09.05h0a.05.05,0,0,1,0,0,.64.64,0,0,1,0-.07v-.24a.15.15,0,0,1,0-.07.08.08,0,0,1,0-.05l0-.05.1-.07a.85.85,0,0,1,.19-.1l.27-.08a1.69,1.69,0,0,1,.33,0,1.25,1.25,0,0,1,.4.06.72.72,0,0,1,.3.16.64.64,0,0,1,.18.27,1,1,0,0,1,.06.36A1.27,1.27,0,0,1,14,20a.88.88,0,0,1-.11.24.77.77,0,0,1-.18.18.66.66,0,0,1-.24.11h0a.75.75,0,0,1,.3.09.73.73,0,0,1,.36.41.87.87,0,0,1,.05.28A1.06,1.06,0,0,1,14,21.78Zm3.18-2.19a.64.64,0,0,1,0,.09l0,.05h0a.17.17,0,0,1-.1,0l-.19-.1-.28-.1a1.32,1.32,0,0,0-.37,0,1,1,0,0,0-.42.09.93.93,0,0,0-.32.24,1.31,1.31,0,0,0-.2.37,1.53,1.53,0,0,0-.07.49,2,2,0,0,0,.07.51,1.18,1.18,0,0,0,.2.37.8.8,0,0,0,.32.22,1,1,0,0,0,.4.08.76.76,0,0,0,.21,0,.56.56,0,0,0,.2-.08v-.78H16a.07.07,0,0,1-.07-.06.49.49,0,0,1,0-.2c0-.05,0-.09,0-.12a.15.15,0,0,1,0-.08l0-.05h1.17l.06.05,0,.07a.22.22,0,0,1,0,.09V22a.27.27,0,0,1,0,.13.22.22,0,0,1-.11.1l-.19.07-.25.06-.25,0h-.26a2,2,0,0,1-.67-.11,1.39,1.39,0,0,1-.51-.34,1.61,1.61,0,0,1-.32-.54,2.27,2.27,0,0,1-.11-.72,2.19,2.19,0,0,1,.12-.75,1.63,1.63,0,0,1,.33-.56,1.35,1.35,0,0,1,.52-.36,1.83,1.83,0,0,1,.68-.12,2.13,2.13,0,0,1,.37,0,1.77,1.77,0,0,1,.29.07.69.69,0,0,1,.21.1.48.48,0,0,1,.12.08.28.28,0,0,1,.05.11,1,1,0,0,1,0,.19Zm2.73.88a.85.85,0,0,1-.24.37.94.94,0,0,1-.39.23,1.71,1.71,0,0,1-.54.08h-.26v1.08s0,0,0,.05l-.05,0-.1,0H18l-.1,0-.05,0s0,0,0-.05V19.18a.24.24,0,0,1,.06-.18.23.23,0,0,1,.16-.06h1a1.2,1.2,0,0,1,.24,0,.86.86,0,0,1,.29.11.82.82,0,0,1,.25.2.8.8,0,0,1,.15.29A1.12,1.12,0,0,1,20,20,1.28,1.28,0,0,1,20,20.47Zm-.79-.92a.48.48,0,0,0-.18-.07h-.46v1.15h.28a.63.63,0,0,0,.26-.05.45.45,0,0,0,.27-.31,1,1,0,0,0,0-.24.67.67,0,0,0-.06-.3A.5.5,0,0,0,19.16,19.55Z"/></g></svg>