<svg width="485" height="491" viewBox="0 0 485 491" fill="none" xmlns="http://www.w3.org/2000/svg">
<g clip-path="url(#clip0_3_264)">
<mask id="mask0_3_264" style="mask-type:luminance" maskUnits="userSpaceOnUse" x="355" y="264" width="131" height="129">
<path d="M420.933 264.315H419.688C384.272 264.315 355.562 293.025 355.562 328.44C355.562 363.855 384.272 392.565 419.688 392.565H420.933C456.348 392.565 485.058 363.855 485.058 328.44C485.058 293.025 456.348 264.315 420.933 264.315Z" fill="white"/>
</mask>
<g mask="url(#mask0_3_264)">
<path d="M420.933 264.315H419.688C384.272 264.315 355.562 293.025 355.562 328.44C355.562 363.855 384.272 392.565 419.688 392.565H420.933C456.348 392.565 485.058 363.855 485.058 328.44C485.058 293.025 456.348 264.315 420.933 264.315Z" fill="#FF8A15"/>
</g>
<mask id="mask1_3_264" style="mask-type:luminance" maskUnits="userSpaceOnUse" x="355" y="264" width="131" height="129">
<path d="M420.939 264.179H419.693C384.278 264.179 355.568 292.889 355.568 328.304C355.568 363.72 384.278 392.429 419.693 392.429H420.939C456.354 392.429 485.064 363.72 485.064 328.304C485.064 292.889 456.354 264.179 420.939 264.179Z" fill="white"/>
</mask>
<g mask="url(#mask1_3_264)">
<path d="M385.075 390.717C385.075 380.3 393.522 371.853 403.931 371.853H435.779C446.195 371.853 454.642 380.3 454.642 390.717V403.491H385.075V390.717Z" fill="#D96C00"/>
</g>
<mask id="mask2_3_264" style="mask-type:luminance" maskUnits="userSpaceOnUse" x="355" y="264" width="131" height="129">
<path d="M420.929 264.196H419.684C384.269 264.196 355.559 292.906 355.559 328.321C355.559 363.737 384.269 392.446 419.684 392.446H420.929C456.345 392.446 485.054 363.737 485.054 328.321C485.054 292.906 456.345 264.196 420.929 264.196Z" fill="white"/>
</mask>
<g mask="url(#mask2_3_264)">
<path d="M433.371 374.063C432.817 368.528 427.836 369.419 427.836 369.419C427.836 369.419 423.168 369.883 419.859 369.883C416.552 369.883 411.887 369.419 411.887 369.419C411.887 369.419 406.906 368.528 406.352 374.063C405.508 382.462 408.982 393.347 408.982 393.347C408.982 393.347 415.926 389.473 419.859 385.653C423.797 389.473 430.741 393.347 430.741 393.347C430.741 393.347 434.212 382.462 433.371 374.063Z" fill="#FFF7F0"/>
</g>
<mask id="mask3_3_264" style="mask-type:luminance" maskUnits="userSpaceOnUse" x="355" y="264" width="131" height="129">
<path d="M420.939 264.229H419.693C384.278 264.229 355.568 292.939 355.568 328.354C355.568 363.769 384.278 392.479 419.693 392.479H420.939C456.354 392.479 485.064 363.769 485.064 328.354C485.064 292.939 456.354 264.229 420.939 264.229Z" fill="white"/>
</mask>
<g mask="url(#mask3_3_264)">
<path d="M428.715 374.974C428.715 379.87 424.751 383.84 419.856 383.84C414.961 383.84 411 379.87 411 374.974V357.889C411 352.993 414.961 349.024 419.856 349.024C424.751 349.024 428.715 352.993 428.715 357.889V374.974Z" fill="#FEE2CA"/>
</g>
<mask id="mask4_3_264" style="mask-type:luminance" maskUnits="userSpaceOnUse" x="355" y="264" width="131" height="129">
<path d="M420.962 264.297H419.717C384.302 264.297 355.592 293.007 355.592 328.422C355.592 363.837 384.302 392.547 419.717 392.547H420.962C456.378 392.547 485.087 363.837 485.087 328.422C485.087 293.007 456.378 264.297 420.962 264.297Z" fill="white"/>
</mask>
<g mask="url(#mask4_3_264)">
<path d="M393.809 331.527C395.15 338.521 391.857 345.037 386.461 346.065C381.062 347.107 375.609 342.265 374.268 335.257C372.932 328.268 376.227 321.752 381.617 320.724C387.019 319.696 392.476 324.531 393.809 331.527Z" fill="#FEE2CA"/>
</g>
<mask id="mask5_3_264" style="mask-type:luminance" maskUnits="userSpaceOnUse" x="355" y="264" width="131" height="129">
<path d="M420.962 264.306H419.717C384.302 264.306 355.592 293.016 355.592 328.431C355.592 363.847 384.302 392.556 419.717 392.556H420.962C456.378 392.556 485.087 363.847 485.087 328.431C485.087 293.016 456.378 264.306 420.962 264.306Z" fill="white"/>
</mask>
<g mask="url(#mask5_3_264)">
<path d="M390.909 332.091C391.85 337.018 389.538 341.591 385.741 342.311C381.95 343.035 378.11 339.633 377.171 334.718C376.234 329.798 378.541 325.219 382.339 324.497C386.132 323.767 389.969 327.175 390.909 332.091Z" fill="#FECAB6"/>
</g>
<mask id="mask6_3_264" style="mask-type:luminance" maskUnits="userSpaceOnUse" x="355" y="264" width="131" height="129">
<path d="M420.906 264.297H419.66C384.245 264.297 355.535 293.007 355.535 328.422C355.535 363.837 384.245 392.547 419.66 392.547H420.906C456.321 392.547 485.031 363.837 485.031 328.422C485.031 293.007 456.321 264.297 420.906 264.297Z" fill="white"/>
</mask>
<g mask="url(#mask6_3_264)">
<path d="M445.907 331.527C444.566 338.521 447.853 345.037 453.256 346.065C458.652 347.107 464.108 342.265 465.448 335.257C466.781 328.268 463.489 321.752 458.097 320.724C452.698 319.696 447.244 324.531 445.907 331.527Z" fill="#FEE2CA"/>
</g>
<mask id="mask7_3_264" style="mask-type:luminance" maskUnits="userSpaceOnUse" x="355" y="264" width="131" height="129">
<path d="M420.906 264.306H419.66C384.245 264.306 355.535 293.016 355.535 328.431C355.535 363.847 384.245 392.556 419.66 392.556H420.906C456.321 392.556 485.031 363.847 485.031 328.431C485.031 293.016 456.321 264.306 420.906 264.306Z" fill="white"/>
</mask>
<g mask="url(#mask7_3_264)">
<path d="M448.81 332.091C447.865 337.018 450.182 341.591 453.975 342.311C457.765 343.035 461.605 339.633 462.542 334.718C463.484 329.798 461.17 325.219 457.38 324.497C453.584 323.767 449.746 327.175 448.81 332.091Z" fill="#FECAB6"/>
</g>
<mask id="mask8_3_264" style="mask-type:luminance" maskUnits="userSpaceOnUse" x="355" y="264" width="131" height="129">
<path d="M420.929 264.318H419.684C384.269 264.318 355.559 293.028 355.559 328.443C355.559 363.858 384.269 392.568 419.684 392.568H420.929C456.345 392.568 485.054 363.858 485.054 328.443C485.054 293.028 456.345 264.318 420.929 264.318Z" fill="white"/>
</mask>
<g mask="url(#mask8_3_264)">
<path d="M456.328 327.356C456.328 351.043 440.001 370.255 419.856 370.255C399.72 370.255 383.39 351.043 383.39 327.356C383.39 303.665 399.72 284.462 419.856 284.462C440.001 284.462 456.328 303.665 456.328 327.356Z" fill="#FEE2CA"/>
</g>
<mask id="mask9_3_264" style="mask-type:luminance" maskUnits="userSpaceOnUse" x="355" y="264" width="131" height="129">
<path d="M420.953 264.302H419.707C384.292 264.302 355.582 293.012 355.582 328.427C355.582 363.843 384.292 392.552 419.707 392.552H420.953C456.368 392.552 485.078 363.843 485.078 328.427C485.078 293.012 456.368 264.302 420.953 264.302Z" fill="white"/>
</mask>
<g mask="url(#mask9_3_264)">
<path d="M409.413 330.661C409.413 332.603 407.823 334.179 405.884 334.179C403.939 334.179 402.364 332.603 402.364 330.661C402.364 328.71 403.939 327.135 405.884 327.135C407.823 327.135 409.413 328.71 409.413 330.661Z" fill="#754636"/>
</g>
<mask id="mask10_3_264" style="mask-type:luminance" maskUnits="userSpaceOnUse" x="355" y="264" width="131" height="129">
<path d="M420.925 264.302H419.679C384.264 264.302 355.554 293.012 355.554 328.427C355.554 363.843 384.264 392.552 419.679 392.552H420.925C456.34 392.552 485.05 363.843 485.05 328.427C485.05 293.012 456.34 264.302 420.925 264.302Z" fill="white"/>
</mask>
<g mask="url(#mask10_3_264)">
<path d="M437.351 330.661C437.351 332.603 435.775 334.179 433.832 334.179C431.883 334.179 430.304 332.603 430.304 330.661C430.304 328.71 431.883 327.135 433.832 327.135C435.775 327.135 437.351 328.71 437.351 330.661Z" fill="#754636"/>
</g>
<mask id="mask11_3_264" style="mask-type:luminance" maskUnits="userSpaceOnUse" x="355" y="264" width="131" height="129">
<path d="M420.939 264.289H419.693C384.278 264.289 355.568 292.999 355.568 328.414C355.568 363.829 384.278 392.539 419.693 392.539H420.939C456.354 392.539 485.064 363.829 485.064 328.414C485.064 292.999 456.354 264.289 420.939 264.289Z" fill="white"/>
</mask>
<g mask="url(#mask11_3_264)">
<path d="M419.856 329.937C418.704 329.937 414.189 341.934 415.903 343.18C417.09 344.039 418.876 344.156 419.856 344.139C420.837 344.156 422.624 344.039 423.81 343.18C425.524 341.934 421.02 329.937 419.856 329.937Z" fill="#FEAB9A"/>
</g>
<mask id="mask12_3_264" style="mask-type:luminance" maskUnits="userSpaceOnUse" x="355" y="264" width="131" height="129">
<path d="M420.94 264.373H419.694C384.279 264.373 355.569 293.083 355.569 328.498C355.569 363.914 384.279 392.623 419.694 392.623H420.94C456.355 392.623 485.065 363.914 485.065 328.498C485.065 293.083 456.355 264.373 420.94 264.373Z" fill="white"/>
</mask>
<g mask="url(#mask12_3_264)">
<path d="M455.677 306.275C454.177 295.942 449.333 290.234 444.985 285.805C440.641 281.371 426.237 277.527 412.197 277.496C411.671 277.494 411.162 277.518 410.658 277.545C407.671 276.559 377.498 283.428 377.498 292.595C377.498 297.197 380.138 301.363 384.395 304.371C384.238 305.095 384.119 305.742 384.041 306.275C382.543 316.622 380.364 327.865 384.041 327.411C387.715 326.955 386.684 323.317 389.705 318.67C392.725 314.03 394.073 309.199 394.073 309.199C394.073 309.199 412.39 311.981 425.257 313.495C438.127 315.009 444.985 312.386 444.985 312.386C444.985 312.386 452.003 326.955 455.677 327.411C459.354 327.865 457.168 316.622 455.677 306.275Z" fill="#954800"/>
</g>
<mask id="mask13_3_264" style="mask-type:luminance" maskUnits="userSpaceOnUse" x="355" y="264" width="131" height="129">
<path d="M420.929 264.257H419.684C384.269 264.257 355.559 292.967 355.559 328.382C355.559 363.797 384.269 392.507 419.684 392.507H420.929C456.345 392.507 485.054 363.797 485.054 328.382C485.054 292.967 456.345 264.257 420.929 264.257Z" fill="white"/>
</mask>
<g mask="url(#mask13_3_264)">
<path d="M410.771 347.129C410.616 347.909 410.521 348.716 410.521 349.553C410.521 355.465 414.704 360.258 419.859 360.258C425.019 360.258 429.198 355.465 429.198 349.553C429.198 348.716 429.108 347.909 428.949 347.129H410.771Z" fill="#FE5B7C"/>
</g>
<path d="M90.3003 78.375C92.1167 76.6106 93.9635 74.8778 95.8421 73.1804" stroke="#DEE1E6" stroke-width="3.8" stroke-miterlimit="10" stroke-linecap="round"/>
<g clip-path="url(#clip1_3_264)">
<path d="M82.425 423.319C81.775 422.806 80.8312 422.925 80.3187 423.575C79.8062 424.225 79.925 425.169 80.575 425.681L117.575 454.681C118.225 455.194 119.169 455.075 119.681 454.425C120.194 453.775 120.075 452.831 119.425 452.319L114.025 448.087L114.887 448.662C115.5 449.069 116.287 449.112 116.944 448.762C117.6 448.412 118 447.737 118 447V431C118 430.262 117.594 429.587 116.944 429.237C116.294 428.887 115.506 428.925 114.887 429.337L108.887 433.337L108 433.931V435V443V443.362L106 441.794V431C106 428.794 104.206 427 102 427H87.1187L82.425 423.319ZM105.437 449.044L82.0187 430.594C82.0062 430.725 82 430.862 82 431V447C82 449.206 83.7937 451 86 451H102C103.462 451 104.744 450.212 105.437 449.044Z" fill="#DEE1E6"/>
</g>
<path fill-rule="evenodd" clip-rule="evenodd" d="M446.378 226.17C446.356 223.663 446.291 221.165 446.182 218.68L442.385 218.846C442.493 221.288 442.557 223.74 442.578 226.203L446.378 226.17ZM445.003 203.775C444.431 198.788 443.686 193.854 442.771 188.977L439.036 189.677C439.934 194.465 440.667 199.311 441.228 204.209L445.003 203.775ZM439.493 174.389C438.22 169.542 436.78 164.764 435.178 160.06L431.581 161.286C433.154 165.904 434.569 170.596 435.818 175.354L439.493 174.389ZM429.852 146.084C427.904 141.476 425.798 136.952 423.54 132.52L420.153 134.244C422.372 138.597 424.44 143.039 426.351 147.563L429.852 146.084ZM416.279 119.441C413.702 115.162 410.976 110.983 408.109 106.911L405.002 109.097C407.817 113.097 410.494 117.201 413.025 121.403L416.279 119.441ZM399.074 94.99C395.921 91.1223 392.634 87.3689 389.219 83.7368L386.45 86.3396C389.804 89.9067 393.032 93.5927 396.129 97.3906L399.074 94.99ZM378.596 73.2067C374.933 69.8246 371.15 66.5707 367.255 63.4522L364.88 66.4188C368.706 69.4813 372.421 72.6768 376.017 75.9983L378.596 73.2067ZM111.365 57.8611C109.482 59.2387 107.623 60.6469 105.788 62.0848L108.131 65.0759C109.934 63.6638 111.76 62.2809 113.609 60.9281L111.365 57.8611ZM355.255 54.5226C351.157 51.6928 346.953 49.0044 342.651 46.4644L340.72 49.7366C344.944 52.2307 349.071 54.8707 353.096 57.6495L355.255 54.5226ZM134.982 42.8797C130.878 45.1154 126.858 47.4836 122.925 49.9785L124.961 53.1872C128.822 50.7373 132.771 48.4119 136.801 46.2166L134.982 42.8797ZM329.509 39.3216C325.056 37.103 320.513 35.0374 315.889 33.1316L314.441 36.645C318.982 38.5162 323.442 40.5444 327.814 42.7227L329.509 39.3216ZM160.38 31.1647C156.01 32.8365 151.709 34.6495 147.485 36.5984L149.076 40.0489C153.224 38.1355 157.447 36.3553 161.737 34.7138L160.38 31.1647ZM301.865 27.9313C297.147 26.3713 292.356 24.9736 287.497 23.7446L286.565 27.4285C291.336 28.6352 296.041 30.0076 300.672 31.5392L301.865 27.9313ZM187.113 22.9397C182.553 24.015 178.05 25.2384 173.608 26.6046L174.726 30.2366C179.086 28.8952 183.507 27.694 187.985 26.6382L187.113 22.9397ZM272.88 20.5977C267.997 19.7273 263.056 19.0252 258.062 18.4975L257.663 22.2764C262.566 22.7947 267.419 23.4841 272.214 24.3387L272.88 20.5977ZM214.701 18.3495C210.03 18.8107 205.406 19.4242 200.831 20.1851L201.454 23.9336C205.946 23.1865 210.488 22.584 215.074 22.1311L214.701 18.3495ZM243.149 17.451C240.663 17.3642 238.166 17.3203 235.659 17.3203C233.317 17.3203 230.984 17.3586 228.661 17.4343L228.784 21.2323C231.066 21.1578 233.358 21.1203 235.659 21.1203C238.122 21.1203 240.575 21.1633 243.017 21.2488L243.149 17.451Z" fill="#DEE1E6"/>
<path d="M444.27 233.317C444.203 235.859 444.091 238.391 443.936 240.91" stroke="#DEE1E6" stroke-width="3.8" stroke-miterlimit="10" stroke-linecap="round"/>
<path d="M231.594 181.975C234.387 180.681 237.613 180.681 240.406 181.975L281.394 200.912C282.987 201.644 284 203.237 284 205C284 206.762 282.987 208.356 281.394 209.087L240.406 228.025C237.613 229.319 234.387 229.319 231.594 228.025L190.606 209.087C189.013 208.337 188 206.744 188 205C188 203.256 189.013 201.644 190.606 200.912L231.594 181.975ZM271.419 220.3L281.394 224.912C282.987 225.644 284 227.237 284 229C284 230.762 282.987 232.356 281.394 233.087L240.406 252.025C237.613 253.319 234.387 253.319 231.594 252.025L190.606 233.087C189.013 232.337 188 230.744 188 229C188 227.256 189.013 225.644 190.606 224.912L200.581 220.3L229.081 233.462C233.469 235.487 238.531 235.487 242.919 233.462L271.419 220.3ZM242.919 257.462L271.419 244.3L281.394 248.912C282.987 249.644 284 251.237 284 253C284 254.762 282.987 256.356 281.394 257.087L240.406 276.025C237.613 277.319 234.387 277.319 231.594 276.025L190.606 257.087C189.013 256.337 188 254.744 188 253C188 251.256 189.013 249.644 190.606 248.912L200.581 244.3L229.081 257.462C233.469 259.487 238.531 259.487 242.919 257.462Z" fill="#DEE1E6"/>
<path d="M434.611 237.302L442.648 254.457L453.488 238.92L434.611 237.302Z" fill="#DEE1E6"/>
<path d="M180.576 428.823C178.128 428.154 175.696 427.441 173.284 426.686" stroke="#DEE1E6" stroke-width="3.8" stroke-miterlimit="10" stroke-linecap="round"/>
<path fill-rule="evenodd" clip-rule="evenodd" d="M159.155 419.878C156.766 418.924 154.399 417.927 152.055 416.888L150.515 420.362C152.902 421.421 155.314 422.436 157.746 423.407L159.155 419.878ZM138.214 410.123C133.678 407.692 129.243 405.096 124.916 402.345L122.878 405.551C127.283 408.352 131.799 410.996 136.419 413.472L138.214 410.123ZM112.234 393.598C108.113 390.525 104.11 387.301 100.233 383.936L97.7426 386.805C101.69 390.232 105.765 393.514 109.962 396.644L112.234 393.598ZM88.9818 373.411C85.3633 369.767 81.8796 365.989 78.5386 362.085L75.6515 364.556C79.0533 368.531 82.6006 372.378 86.2852 376.089L88.9818 373.411ZM68.9625 350.016C65.925 345.882 63.0374 341.631 60.3078 337.272L57.087 339.287C59.8667 343.728 62.8071 348.057 65.9003 352.266L68.9625 350.016ZM52.6252 323.918C50.2376 319.386 48.0134 314.754 45.9603 310.03L42.4753 311.545C44.5662 316.355 46.8315 321.073 49.263 325.689L52.6252 323.918ZM40.3535 295.682C38.6719 290.853 37.1641 285.941 35.838 280.956L32.1657 281.932C33.5164 287.01 35.052 292.013 36.7648 296.932L40.3535 295.682ZM32.4388 265.93C31.4996 260.912 30.7414 255.831 30.1714 250.691L26.3946 251.11C26.975 256.344 27.7471 261.519 28.7037 266.63L32.4388 265.93ZM29.0404 235.324C28.9468 232.768 28.8996 230.198 28.8996 227.619C28.8996 225.278 28.9385 222.946 29.0156 220.624L25.2177 220.498C25.1392 222.862 25.0996 225.235 25.0996 227.619C25.0996 230.245 25.1477 232.86 25.243 235.464L29.0404 235.324ZM29.9468 206.666C30.1806 204.34 30.453 202.024 30.7632 199.72L26.9972 199.213C26.6814 201.559 26.404 203.917 26.1658 206.287L29.9468 206.666Z" fill="#DEE1E6"/>
<path d="M30.1396 191.919C30.574 189.416 31.0531 186.928 31.5756 184.457" stroke="#DEE1E6" stroke-width="3.8" stroke-miterlimit="10" stroke-linecap="round"/>
<path d="M40.2703 189.399L34.8458 171.247L21.8367 185.019L40.2703 189.399Z" fill="#DEE1E6"/>
<path d="M127.825 19.5122C124.739 19.5122 122.237 17.0091 122.237 13.9251C122.237 10.8379 124.739 8.33489 127.825 8.33489C130.911 8.33489 133.412 10.8379 133.412 13.9251C133.412 17.0091 130.911 19.5122 127.825 19.5122ZM141.776 16.7785V11.0697L137.494 11.3536C137.264 10.4857 136.92 9.66232 136.479 8.90388L139.709 6.07756L135.671 2.04209L132.845 5.27108C132.084 4.82876 131.264 4.48296 130.394 4.25382L130.679 -0.026123H124.971L125.256 4.25382C124.387 4.48296 123.565 4.82876 122.805 5.27108L119.98 2.04209L115.943 6.07756L119.173 8.90388C118.731 9.66232 118.386 10.4857 118.155 11.3536L113.875 11.0697V16.7785L118.155 16.4935C118.386 17.3623 118.731 18.1846 119.173 18.9433L115.943 21.7705L119.98 25.8074L122.805 22.5774C123.565 23.0184 124.387 23.3626 125.256 23.5933L124.971 27.8746H130.679L130.394 23.5933C131.264 23.3626 132.084 23.0184 132.845 22.5774L135.671 25.8074L139.709 21.7705L136.479 18.9433C136.92 18.1846 137.264 17.3623 137.494 16.4935L141.776 16.7785Z" fill="#DEE1E6"/>
<path d="M414.45 455.585H406.276V447.411H402.044V455.585H393.872V459.816H402.044V467.989H406.276V459.816H414.45V455.585Z" fill="#DEE1E6"/>
<path d="M127.82 298.205H119.646V290.031H115.414V298.205H107.242V302.436H115.414V310.609H119.646V302.436H127.82V298.205Z" fill="#DEE1E6"/>
<path d="M368 52C368 46.4844 372.484 42 378 42H403V62C403 64.7656 405.234 67 408 67H428V89.5H395.5C389.984 89.5 385.5 93.9844 385.5 99.5V122H378C372.484 122 368 117.516 368 112V52ZM428 62H408V42L428 62ZM395.5 97H400.5C405.328 97 409.25 100.922 409.25 105.75C409.25 110.578 405.328 114.5 400.5 114.5H398V119.5C398 120.875 396.875 122 395.5 122C394.125 122 393 120.875 393 119.5V112V99.5C393 98.125 394.125 97 395.5 97ZM400.5 109.5C402.578 109.5 404.25 107.828 404.25 105.75C404.25 103.672 402.578 102 400.5 102H398V109.5H400.5ZM415.5 97H420.5C424.641 97 428 100.359 428 104.5V114.5C428 118.641 424.641 122 420.5 122H415.5C414.125 122 413 120.875 413 119.5V99.5C413 98.125 414.125 97 415.5 97ZM420.5 117C421.875 117 423 115.875 423 114.5V104.5C423 103.125 421.875 102 420.5 102H418V117H420.5ZM433 99.5C433 98.125 434.125 97 435.5 97H443C444.375 97 445.5 98.125 445.5 99.5C445.5 100.875 444.375 102 443 102H438V107H443C444.375 107 445.5 108.125 445.5 109.5C445.5 110.875 444.375 112 443 112H438V119.5C438 120.875 436.875 122 435.5 122C434.125 122 433 120.875 433 119.5V109.5V99.5Z" fill="#FF8A15"/>
<g clip-path="url(#clip2_3_264)">
<path d="M333 17C327.484 17 323 21.4844 323 27V87C323 92.5156 327.484 97 333 97H373C378.516 97 383 92.5156 383 87V42H363C360.234 42 358 39.7656 358 37V17H333ZM363 17V37H383L363 17ZM340.344 57.1719L344.531 71.1094L349.469 57C350 55.5 351.422 54.4844 353.016 54.4844C354.609 54.4844 356.031 55.4844 356.562 57L361.5 71.1094L365.656 57.1719C366.25 55.1875 368.344 54.0625 370.328 54.6562C372.312 55.25 373.438 57.3438 372.844 59.3281L365.344 84.3281C364.875 85.8906 363.469 86.9688 361.844 87C360.219 87.0312 358.75 86.0312 358.219 84.4844L353 69.5938L347.797 84.4844C347.266 86.0156 345.797 87.0312 344.172 87C342.547 86.9688 341.125 85.8906 340.672 84.3281L333.172 59.3281C332.578 57.3438 333.703 55.25 335.688 54.6562C337.672 54.0625 339.766 55.1875 340.359 57.1719H340.344Z" fill="#00927F"/>
</g>
<g clip-path="url(#clip3_3_264)">
<path d="M75 59H145C152.722 59 159 65.2781 159 73V122C159 129.722 152.722 136 145 136H75C67.2781 136 61 129.722 61 122V73C61 65.2781 67.2781 59 75 59ZM123.125 82.3406C122.141 80.875 120.5 80 118.75 80C117 80 115.359 80.875 114.375 82.3406L102.125 100.716L98.3406 95.9688C97.3344 94.7219 95.825 94 94.25 94C92.675 94 91.1437 94.7219 90.1594 95.9688L76.1594 113.469C74.8906 115.044 74.65 117.209 75.525 119.025C76.4 120.841 78.2375 122 80.25 122H97.75H108.25H139.75C141.697 122 143.469 120.928 144.388 119.222C145.306 117.516 145.197 115.437 144.125 113.841L123.125 82.3406ZM92.5 80C92.5 78.1435 91.7625 76.363 90.4497 75.0503C89.137 73.7375 87.3565 73 85.5 73C83.6435 73 81.863 73.7375 80.5503 75.0503C79.2375 76.363 78.5 78.1435 78.5 80C78.5 81.8565 79.2375 83.637 80.5503 84.9497C81.863 86.2625 83.6435 87 85.5 87C87.3565 87 89.137 86.2625 90.4497 84.9497C91.7625 83.637 92.5 81.8565 92.5 80ZM33 87H54V143V150C54 153.872 57.1281 157 61 157H89C92.8719 157 96 153.872 96 150V143H131V157C131 164.722 124.722 171 117 171H33C25.2781 171 19 164.722 19 157V101C19 93.2781 25.2781 87 33 87ZM34.75 101C32.825 101 31.25 102.575 31.25 104.5V108C31.25 109.925 32.825 111.5 34.75 111.5H38.25C40.175 111.5 41.75 109.925 41.75 108V104.5C41.75 102.575 40.175 101 38.25 101H34.75ZM34.75 123.75C32.825 123.75 31.25 125.325 31.25 127.25V130.75C31.25 132.675 32.825 134.25 34.75 134.25H38.25C40.175 134.25 41.75 132.675 41.75 130.75V127.25C41.75 125.325 40.175 123.75 38.25 123.75H34.75ZM34.75 146.5C32.825 146.5 31.25 148.075 31.25 150V153.5C31.25 155.425 32.825 157 34.75 157H38.25C40.175 157 41.75 155.425 41.75 153.5V150C41.75 148.075 40.175 146.5 38.25 146.5H34.75ZM108.25 150V153.5C108.25 155.425 109.825 157 111.75 157H115.25C117.175 157 118.75 155.425 118.75 153.5V150C118.75 148.075 117.175 146.5 115.25 146.5H111.75C109.825 146.5 108.25 148.075 108.25 150Z" fill="#00927F"/>
</g>
<path d="M303 348H276.094L275.781 348.312L236.094 388H264.875L265.188 387.688L304.812 348.094C304.219 348.031 303.625 348 303 348ZM323 388V368C323 363.281 321.344 358.906 318.625 355.5L286.125 388H323ZM254.906 348H226.094L225.781 348.312L186.094 388H214.875L215.188 387.688L254.875 348H254.906ZM183 348C171.969 348 163 356.969 163 368V388H164.906L165.219 387.688L204.906 348H183ZM323 398H163V468C163 479.031 171.969 488 183 488H303C314.031 488 323 479.031 323 468V398Z" fill="#FF8A15"/>
<g clip-path="url(#clip4_3_264)">
<path d="M219 442C219 435.635 221.529 429.53 226.029 425.029C230.53 420.529 236.635 418 243 418C249.365 418 255.47 420.529 259.971 425.029C264.471 429.53 267 435.635 267 442C267 448.365 264.471 454.47 259.971 458.971C255.47 463.471 249.365 466 243 466C236.635 466 230.53 463.471 226.029 458.971C221.529 454.47 219 448.365 219 442ZM236.653 431.791C235.941 432.184 235.5 432.944 235.5 433.75V450.25C235.5 451.066 235.941 451.816 236.653 452.209C237.366 452.603 238.228 452.594 238.931 452.162L252.431 443.912C253.097 443.5 253.509 442.778 253.509 441.991C253.509 441.203 253.097 440.481 252.431 440.069L238.931 431.819C238.238 431.397 237.366 431.378 236.653 431.772V431.791Z" fill="#FEE2CA"/>
</g>
<path d="M20 34V18C20 15.7938 21.7938 14 24 14H40C42.2062 14 44 15.7938 44 18V30.3438C44 31.4062 43.5812 32.425 42.8312 33.175L39.175 36.8312C38.425 37.5812 37.4062 38 36.3438 38H24C21.7938 38 20 36.2062 20 34ZM31 20C30.45 20 30 20.45 30 21V24H27C26.45 24 26 24.45 26 25V27C26 27.55 26.45 28 27 28H30V31C30 31.55 30.45 32 31 32H33C33.55 32 34 31.55 34 31V28H37C37.55 28 38 27.55 38 27V25C38 24.45 37.55 24 37 24H34V21C34 20.45 33.55 20 33 20H31ZM32.5 41C33.3313 41 34 41.6687 34 42.5C34 43.3313 33.3313 44 32.5 44H22.5C17.8063 44 14 40.1937 14 35.5V21.5C14 20.6687 14.6687 20 15.5 20C16.3313 20 17 20.6687 17 21.5V35.5C17 38.5375 19.4625 41 22.5 41H32.5Z" fill="#DEE1E6"/>
</g>
<defs>
<clipPath id="clip0_3_264">
<rect width="485" height="491" fill="white"/>
</clipPath>
<clipPath id="clip1_3_264">
<rect width="40" height="32" fill="white" transform="translate(80 423)"/>
</clipPath>
<clipPath id="clip2_3_264">
<rect width="60" height="80" fill="white" transform="translate(323 17)"/>
</clipPath>
<clipPath id="clip3_3_264">
<rect width="140" height="112" fill="white" transform="translate(19 59)"/>
</clipPath>
<clipPath id="clip4_3_264">
<rect width="48" height="48" fill="white" transform="translate(219 418)"/>
</clipPath>
</defs>
</svg>
