<?xml version="1.0" ?><svg viewBox="0 0 32 32" xmlns="http://www.w3.org/2000/svg"><g data-name="Layer 43" id="Layer_43"><path d="M16.87,19.52,16,21.07h.84V19.52Zm0,0L16,21.07h.84V19.52ZM25,17H7a.92.92,0,0,0-1,.8v6.4A.92.92,0,0,0,7,25H25a.92.92,0,0,0,1-.8V17.8A.92.92,0,0,0,25,17Zm-9.9,5.23s0,0,0,.05l-.05,0-.09,0h-.3l-.09,0-.05,0a.09.09,0,0,1,0-.05V19.47h0l-.91,2.76,0,.05-.06,0-.1,0H13.1l-.1,0-.06,0a.13.13,0,0,1,0-.05L12,19.47h0v2.76a.09.09,0,0,1,0,.05l0,0-.1,0h-.29l-.09,0-.05,0s0,0,0-.05v-3a.3.3,0,0,1,.07-.2.21.21,0,0,1,.18-.07h.42a.58.58,0,0,1,.19,0,.35.35,0,0,1,.14.06.27.27,0,0,1,.09.12.69.69,0,0,1,.07.19l.69,2h0l.7-2,.07-.18.09-.13a.34.34,0,0,1,.12-.06.41.41,0,0,1,.16,0h.43A.23.23,0,0,1,15,19,.18.18,0,0,1,15,19a.19.19,0,0,1,.05.09.36.36,0,0,1,0,.11Zm2.75-.68c0,.05,0,.07-.07.07H17.5v.62a.08.08,0,0,1,0,0,.09.09,0,0,1-.05,0l-.1,0H17l-.1,0a.09.09,0,0,1-.05,0,.06.06,0,0,1,0,0v-.62H15.61s0,0,0,0a.2.2,0,0,1,0-.09.81.81,0,0,1,0-.17v-.14s0-.08,0-.11l0-.1a.36.36,0,0,1,0-.09l1-1.86s0,0,0,0l.08,0h.54l.14,0,.08,0a.09.09,0,0,1,0,.05v2h.28s0,0,.06.07a.51.51,0,0,1,0,.21A.88.88,0,0,1,17.85,21.55Zm3-2.35-.94,3,0,.08-.07,0-.11,0h-.57l-.05,0,0,0s0,0,0-.05l-.94-3c0-.06,0-.11,0-.15a.11.11,0,0,1,0-.08.13.13,0,0,1,.1,0h.38l.1,0a.09.09,0,0,1,.05,0,.14.14,0,0,1,0,.07l.77,2.61h0l.75-2.6a.64.64,0,0,1,0-.07.1.1,0,0,1,0,0l.11,0h.35a.19.19,0,0,1,.09,0,.11.11,0,0,1,0,.08A.56.56,0,0,1,20.83,19.2ZM16,21.07h.84V19.52h0ZM23,26h2v1a2,2,0,0,1-2,2H9a2,2,0,0,1-2-2V26H9v1H23ZM9,16H7V5A2,2,0,0,1,9,3H20.41L25,7.59V16H23V9H19a1,1,0,0,1-1-1V5H9Zm7.87,3.52L16,21.07h.84V19.52Zm0,0L16,21.07h.84V19.52ZM25,17H7a.92.92,0,0,0-1,.8v6.4A.92.92,0,0,0,7,25H25a.92.92,0,0,0,1-.8V17.8A.92.92,0,0,0,25,17Zm-9.9,5.23s0,0,0,.05l-.05,0-.09,0h-.3l-.09,0-.05,0a.09.09,0,0,1,0-.05V19.47h0l-.91,2.76,0,.05-.06,0-.1,0H13.1l-.1,0-.06,0a.13.13,0,0,1,0-.05L12,19.47h0v2.76a.09.09,0,0,1,0,.05l0,0-.1,0h-.29l-.09,0-.05,0s0,0,0-.05v-3a.3.3,0,0,1,.07-.2.21.21,0,0,1,.18-.07h.42a.58.58,0,0,1,.19,0,.35.35,0,0,1,.14.06.27.27,0,0,1,.09.12.69.69,0,0,1,.07.19l.69,2h0l.7-2,.07-.18.09-.13a.34.34,0,0,1,.12-.06.41.41,0,0,1,.16,0h.43A.23.23,0,0,1,15,19,.18.18,0,0,1,15,19a.19.19,0,0,1,.05.09.36.36,0,0,1,0,.11Zm2.75-.68c0,.05,0,.07-.07.07H17.5v.62a.08.08,0,0,1,0,0,.09.09,0,0,1-.05,0l-.1,0H17l-.1,0a.09.09,0,0,1-.05,0,.06.06,0,0,1,0,0v-.62H15.61s0,0,0,0a.2.2,0,0,1,0-.09.81.81,0,0,1,0-.17v-.14s0-.08,0-.11l0-.1a.36.36,0,0,1,0-.09l1-1.86s0,0,0,0l.08,0h.54l.14,0,.08,0a.09.09,0,0,1,0,.05v2h.28s0,0,.06.07a.51.51,0,0,1,0,.21A.88.88,0,0,1,17.85,21.55Zm3-2.35-.94,3,0,.08-.07,0-.11,0h-.57l-.05,0,0,0s0,0,0-.05l-.94-3c0-.06,0-.11,0-.15a.11.11,0,0,1,0-.08.13.13,0,0,1,.1,0h.38l.1,0a.09.09,0,0,1,.05,0,.14.14,0,0,1,0,.07l.77,2.61h0l.75-2.6a.64.64,0,0,1,0-.07.1.1,0,0,1,0,0l.11,0h.35a.19.19,0,0,1,.09,0,.11.11,0,0,1,0,.08A.56.56,0,0,1,20.83,19.2ZM16,21.07h.84V19.52h0Z"/></g></svg>